<svg width="22" height="22" viewBox="0 0 22 22" fill="none" xmlns="http://www.w3.org/2000/svg">
<path d="M1.66669 10.25C1.25247 10.25 0.916687 10.5858 0.916687 11C0.916687 11.4142 1.25247 11.75 1.66669 11.75V10.25ZM20.3334 11.75C20.7476 11.75 21.0834 11.4142 21.0834 11C21.0834 10.5858 20.7476 10.25 20.3334 10.25V11.75ZM11.5834 3.00003C11.5834 3.32219 11.3222 3.58336 11 3.58336V5.08336C12.1506 5.08336 13.0834 4.15062 13.0834 3.00003H11.5834ZM11 3.58336C10.6779 3.58336 10.4167 3.32219 10.4167 3.00003H8.91669C8.91669 4.15062 9.84943 5.08336 11 5.08336V3.58336ZM10.4167 3.00003C10.4167 2.67786 10.6779 2.41669 11 2.41669V0.916695C9.84943 0.916695 8.91669 1.84943 8.91669 3.00003H10.4167ZM11 2.41669C11.3222 2.41669 11.5834 2.67786 11.5834 3.00003H13.0834C13.0834 1.84943 12.1506 0.916695 11 0.916695V2.41669ZM11.5834 19C11.5834 19.3222 11.3222 19.5834 11 19.5834V21.0834C12.1506 21.0834 13.0834 20.1506 13.0834 19H11.5834ZM11 19.5834C10.6779 19.5834 10.4167 19.3222 10.4167 19H8.91669C8.91669 20.1506 9.84943 21.0834 11 21.0834V19.5834ZM10.4167 19C10.4167 18.6779 10.6779 18.4167 11 18.4167V16.9167C9.84943 16.9167 8.91669 17.8494 8.91669 19H10.4167ZM11 18.4167C11.3222 18.4167 11.5834 18.6779 11.5834 19H13.0834C13.0834 17.8494 12.1506 16.9167 11 16.9167V18.4167ZM1.66669 11.75H20.3334V10.25H1.66669V11.75Z" fill="#11998E"/>
</svg>
