<svg width="18" height="18" viewBox="0 0 18 18" fill="none" xmlns="http://www.w3.org/2000/svg">
<path d="M17.5303 1.53036C17.8232 1.23747 17.8232 0.762594 17.5303 0.4697C17.2374 0.176807 16.7626 0.176807 16.4697 0.4697L17.5303 1.53036ZM0.46967 16.4697C0.176777 16.7626 0.176777 17.2375 0.46967 17.5304C0.762563 17.8233 1.23744 17.8233 1.53033 17.5304L0.46967 16.4697ZM1.53033 0.4697C1.23744 0.176807 0.762563 0.176807 0.46967 0.4697C0.176777 0.762594 0.176777 1.23747 0.46967 1.53036L1.53033 0.4697ZM16.4697 17.5304C16.7626 17.8233 17.2374 17.8233 17.5303 17.5304C17.8232 17.2375 17.8232 16.7626 17.5303 16.4697L16.4697 17.5304ZM16.4697 0.4697L0.46967 16.4697L1.53033 17.5304L17.5303 1.53036L16.4697 0.4697ZM0.46967 1.53036L16.4697 17.5304L17.5303 16.4697L1.53033 0.4697L0.46967 1.53036Z" fill="#11998E"/>
</svg>
