<svg width="22" height="22" viewBox="0 0 22 22" fill="none" xmlns="http://www.w3.org/2000/svg">
<path d="M11.75 1.6667C11.75 1.25249 11.4142 0.916702 11 0.916702C10.5858 0.916702 10.25 1.25249 10.25 1.6667H11.75ZM10.25 20.3334C10.25 20.7476 10.5858 21.0834 11 21.0834C11.4142 21.0834 11.75 20.7476 11.75 20.3334H10.25ZM1.66669 10.25C1.25247 10.25 0.916687 10.5858 0.916687 11C0.916687 11.4143 1.25247 11.75 1.66669 11.75V10.25ZM20.3334 11.75C20.7476 11.75 21.0834 11.4143 21.0834 11C21.0834 10.5858 20.7476 10.25 20.3334 10.25V11.75ZM10.25 1.6667V20.3334H11.75V1.6667H10.25ZM1.66669 11.75H20.3334V10.25H1.66669V11.75Z" fill="#11998E"/>
</svg>
